{"title":"Puppet Master Axis of Evil Xvid DVDrip-MAGNET","uid":5712533,"size":664445526,"categoryP":"video","categoryS":"movies","magnet":"?xt=urn:btih:5f54ccc8bd0085d5669cae71e4c0522031204da0&amp;dn=Puppet+Master+Axis+of+Evil+Xvid+DVDrip-MAGNET&amp;tr=udp%3A%2F%2Ftracker.openbittorrent.com%3A80&amp;tr=udp%3A%2F%2Fopen.demonii.com%3A1337&amp;tr=udp%3A%2F%2Ftracker.coppersurfer.tk%3A6969&amp;tr=udp%3A%2F%2Fexodus.desync.com%3A6969","seeders":0,"leechers":1,"uploader":"TvTeam","files":4,"time":1279959433,"description":". \n  &lt;a href=&quot;\nhttp://www.torrentday.com/&quot; rel=&quot;nofollow&quot; target=&quot;_NEW&quot;&gt;\nhttp://www.torrentday.com/&lt;/a&gt;        :     The Hottest Private Tracker On The Net!!!\n\n\n               www . TorrentDay . Com \n(((((((((((((= Enjoy No RAR releases =))))))))))))))))))))\n\n\n...................................NFO:....................................\n\n.................................................................................\n................................................................................\n................................................................................\n................................................................................\n................................................................................\n................................................................................\n............................................ MMMMMMMMMMMMM......................\n........................................MMM.............. MMM...................\n.....................................MM......................MM ................\n...................................MM..........................M,...............\n.................................M: ............................MM..............\n...............................M ...........MMMMMMM..............MM.............\n                             M8.        MMMMMMMMMMMMM .          NM             \n                           ?M.        MMMMMMMMMMMMMMMMM          .MM            \n                          M.       +MMMMMMMMM       .~MM.         MM~           \n                        IM       .MMMMMMM7            ,MM        .MMM           \n                       M:       DMMMMMM.               MM        DMMM.          \n                      M.      .MMMMMMM                  M        MMMMZ          \n. .  . .. .  . .. .  M .. .  ?MMMMMM?. .. .  . .. .  . .M .  . ..MMMM$ .. .  . .\n                   OI      .MMMMMMM                     M        MMMMZ          \n                 .M       ,MMMMMM,                     MM       ,MMMM           \n                .M.      ,M.MMMM                       M        MMMMM           \n                MNMI.   MM MM+M.                       M       .MMMMM           \n...............M....MMMIM.$MOM....................... M....... MMMMMM...........\n............. M ......MMM7MMI....................... MD...... MMMMMM. ..........\n............ M?......O?M.MM.........................=M...... MMMMMMM M M........\n.............M...... M  MM .........................M.......MMMMMMM   M. .M ....\n............M.......M,M M..........................M.......8MMMMMM .7.MM,.M ....\n...........M ......M MMM.........................MM.......MMMMMMM ...M..MN .....\n...........M..... MZ MMM........................MM.......MMMMMMM................\n..........M,.....MM+MZM .......................M .......MMMMMMM ................\n......... ,......M.M M .......................M ...... MMMMMMM .................\n.........M .....M.M M .......................MNMM ....MMMMMMM...................\n........ MM.... MM.M.......................M..... MMMMMMMMM~....................\n......... NMMMMMMMIM..................... M........MMMMMMM .....................\n...........MMMMMMMM.....................M ...... MMMMOMMM.......................\n........... MMMMMMM...................~M........MM.MMMM ........................\n................MMM................. M,......,MMM.MMMM .........................\n...................................MM.......MMM.  MM ...........................\n................................. M ......MMMM,M M: ............................\n............................... M.......MM IM.MMM...............................\n............................. MMM. .. MMMM.M7MM ................................\n...............................MMMMMMM~ , M8M,..................................\n................................MMMMM: M IM.....................................\n................................MMMMMZM.M ......................................\n................................. 7MMMM.........................................\n....................................,,..........................................\n                                                                                \n                      MAGNET GRoUP PROUDLY PRESENTS :\n\nGeneral\nComplete name                    : Puppet Master Axis of Evil Xvid DVDrip-MAGNET.avi\nFormat                           : AVI\nFormat/Info                      : Audio Video Interleave\nFile size                        : 634 MiB\nDuration                         : 1h 21mn\nOverall bit rate                 : 1 092 Kbps\nWriting application              : Lavf52.39.1\n\nVideo\nFormat                           : xvid\nCodec ID                         : xvid\nDuration                         : 1h 21mn\nBit rate                         : 1 015 Kbps\nWidth                            : 720 pixels\nHeight                           : 304 pixels\nDisplay aspect ratio             : 2.35:1\nFrame rate                       : 23.976 fps\nBits/(Pixel*Frame)               : 0.193\nStream size                      : 589 MiB (93%)\n\nAudio\nID                               : 1\nFormat                           : MPEG Audio\nFormat version                   : Version 1\nFormat profile                   : Layer 3\nMode                             : Joint stereo\nMode extension                   : MS Stereo\nCodec ID                         : 55\nCodec ID/Hint                    : MP3\nDuration                         : 1h 21mn\nBit rate mode                    : Constant\nBit rate                         : 64.0 Kbps\nChannel(s)                       : 2 channels\nSampling rate                    : 48.0 KHz\nStream size                      : 37.1 MiB (6%)\nAlignment                        : Aligned on interleaves\nInterleave, duration             : 24 ms (0.58 video frame)\nInterleave, preload duration     : 24 ms","torrent":{"xt":"urn:btih:5f54ccc8bd0085d5669cae71e4c0522031204da0","amp;dn":"Puppet+Master+Axis+of+Evil+Xvid+DVDrip-MAGNET","amp;tr":["udp%3A%2F%2Ftracker.openbittorrent.com%3A80","udp%3A%2F%2Fopen.demonii.com%3A1337","udp%3A%2F%2Ftracker.coppersurfer.tk%3A6969","udp%3A%2F%2Fexodus.desync.com%3A6969"],"infoHash":"5f54ccc8bd0085d5669cae71e4c0522031204da0","infoHashBuffer":{"type":"Buffer","data":[95,84,204,200,189,0,133,213,102,156,174,113,228,192,82,32,49,32,77,160]},"announce":[],"urlList":[]}}